<svg width="8" height="11" viewBox="0 0 8 11" fill="none" xmlns="http://www.w3.org/2000/svg">
<path fill-rule="evenodd" clip-rule="evenodd" d="M0.146894 7.146C0.193339 7.09944 0.248515 7.0625 0.30926 7.03729C0.370005 7.01208 0.435126 6.99911 0.500894 6.99911C0.566661 6.99911 0.631782 7.01208 0.692527 7.03729C0.753272 7.0625 0.808448 7.09944 0.854894 7.146L3.50089 9.793L6.14689 7.146C6.24078 7.05211 6.36812 6.99937 6.50089 6.99937C6.63367 6.99937 6.76101 7.05211 6.85489 7.146C6.94878 7.23989 7.00152 7.36723 7.00152 7.5C7.00152 7.63278 6.94878 7.76011 6.85489 7.854L3.85489 10.854C3.80845 10.9006 3.75327 10.9375 3.69253 10.9627C3.63178 10.9879 3.56666 11.0009 3.50089 11.0009C3.43513 11.0009 3.37001 10.9879 3.30926 10.9627C3.24851 10.9375 3.19334 10.9006 3.14689 10.854L0.146894 7.854C0.10033 7.80756 0.0633873 7.75238 0.0381808 7.69163C0.0129744 7.63089 0 7.56577 0 7.5C0 7.43423 0.0129744 7.36911 0.0381808 7.30837C0.0633873 7.24762 0.10033 7.19245 0.146894 7.146Z" fill="#A6B0C3"/>
<path fill-rule="evenodd" clip-rule="evenodd" d="M3.50098 0C3.63358 0 3.76076 0.0526785 3.85453 0.146447C3.9483 0.240215 4.00098 0.367392 4.00098 0.5V9.5C4.00098 9.63261 3.9483 9.75979 3.85453 9.85355C3.76076 9.94732 3.63358 10 3.50098 10C3.36837 10 3.24119 9.94732 3.14742 9.85355C3.05366 9.75979 3.00098 9.63261 3.00098 9.5V0.5C3.00098 0.367392 3.05366 0.240215 3.14742 0.146447C3.24119 0.0526785 3.36837 0 3.50098 0Z" fill="#A6B0C3"/>
</svg>
