<svg width="18" height="18" viewBox="0 0 18 18" fill="none" xmlns="http://www.w3.org/2000/svg">
<rect width="18" height="18" rx="9" fill="#A6B0C3"/>
<path d="M6.14689 6.14689C6.19334 6.10033 6.24851 6.06339 6.30926 6.03818C6.37001 6.01297 6.43513 6 6.50089 6C6.56666 6 6.63178 6.01297 6.69253 6.03818C6.75327 6.06339 6.80845 6.10033 6.85489 6.14689L9.50089 8.79389L12.1469 6.14689C12.1934 6.10041 12.2486 6.06353 12.3093 6.03837C12.37 6.01321 12.4351 6.00026 12.5009 6.00026C12.5666 6.00026 12.6317 6.01321 12.6925 6.03837C12.7532 6.06353 12.8084 6.10041 12.8549 6.14689C12.9014 6.19338 12.9383 6.24857 12.9634 6.30931C12.9886 6.37005 13.0015 6.43515 13.0015 6.50089C13.0015 6.56664 12.9886 6.63174 12.9634 6.69248C12.9383 6.75322 12.9014 6.80841 12.8549 6.85489L10.2079 9.50089L12.8549 12.1469C12.9014 12.1934 12.9383 12.2486 12.9634 12.3093C12.9886 12.37 13.0015 12.4351 13.0015 12.5009C13.0015 12.5666 12.9886 12.6317 12.9634 12.6925C12.9383 12.7532 12.9014 12.8084 12.8549 12.8549C12.8084 12.9014 12.7532 12.9383 12.6925 12.9634C12.6317 12.9886 12.5666 13.0015 12.5009 13.0015C12.4351 13.0015 12.37 12.9886 12.3093 12.9634C12.2486 12.9383 12.1934 12.9014 12.1469 12.8549L9.50089 10.2079L6.85489 12.8549C6.80841 12.9014 6.75322 12.9383 6.69248 12.9634C6.63174 12.9886 6.56664 13.0015 6.50089 13.0015C6.43515 13.0015 6.37005 12.9886 6.30931 12.9634C6.24857 12.9383 6.19338 12.9014 6.14689 12.8549C6.10041 12.8084 6.06353 12.7532 6.03837 12.6925C6.01321 12.6317 6.00026 12.5666 6.00026 12.5009C6.00026 12.4351 6.01321 12.37 6.03837 12.3093C6.06353 12.2486 6.10041 12.1934 6.14689 12.1469L8.79389 9.50089L6.14689 6.85489C6.10033 6.80845 6.06339 6.75327 6.03818 6.69253C6.01297 6.63178 6 6.56666 6 6.50089C6 6.43513 6.01297 6.37001 6.03818 6.30926C6.06339 6.24851 6.10033 6.19334 6.14689 6.14689Z" fill="white"/>
</svg>
