<svg width="25" height="25" viewBox="0 0 25 25" fill="none" xmlns="http://www.w3.org/2000/svg">
<path fill-rule="evenodd" clip-rule="evenodd" d="M12.5 23.4375C15.4008 23.4375 18.1828 22.2852 20.234 20.234C22.2852 18.1828 23.4375 15.4008 23.4375 12.5C23.4375 9.59919 22.2852 6.8172 20.234 4.76602C18.1828 2.71484 15.4008 1.5625 12.5 1.5625C9.59919 1.5625 6.8172 2.71484 4.76602 4.76602C2.71484 6.8172 1.5625 9.59919 1.5625 12.5C1.5625 15.4008 2.71484 18.1828 4.76602 20.234C6.8172 22.2852 9.59919 23.4375 12.5 23.4375ZM12.5 25C15.8152 25 18.9946 23.683 21.3388 21.3388C23.683 18.9946 25 15.8152 25 12.5C25 9.18479 23.683 6.00537 21.3388 3.66117C18.9946 1.31696 15.8152 0 12.5 0C9.18479 0 6.00537 1.31696 3.66117 3.66117C1.31696 6.00537 0 9.18479 0 12.5C0 15.8152 1.31696 18.9946 3.66117 21.3388C6.00537 23.683 9.18479 25 12.5 25Z" fill="#959EAD"/>
<path fill-rule="evenodd" clip-rule="evenodd" d="M10.9375 17.9688C10.9375 17.7615 11.0198 17.5628 11.1663 17.4163C11.3128 17.2698 11.5115 17.1875 11.7188 17.1875H13.2812C13.4885 17.1875 13.6872 17.2698 13.8337 17.4163C13.9802 17.5628 14.0625 17.7615 14.0625 17.9688C14.0625 18.176 13.9802 18.3747 13.8337 18.5212C13.6872 18.6677 13.4885 18.75 13.2812 18.75H11.7188C11.5115 18.75 11.3128 18.6677 11.1663 18.5212C11.0198 18.3747 10.9375 18.176 10.9375 17.9688ZM7.8125 13.2812C7.8125 13.074 7.89481 12.8753 8.04132 12.7288C8.18784 12.5823 8.38655 12.5 8.59375 12.5H16.4062C16.6135 12.5 16.8122 12.5823 16.9587 12.7288C17.1052 12.8753 17.1875 13.074 17.1875 13.2812C17.1875 13.4885 17.1052 13.6872 16.9587 13.8337C16.8122 13.9802 16.6135 14.0625 16.4062 14.0625H8.59375C8.38655 14.0625 8.18784 13.9802 8.04132 13.8337C7.89481 13.6872 7.8125 13.4885 7.8125 13.2812ZM4.6875 8.59375C4.6875 8.38655 4.76981 8.18784 4.91632 8.04132C5.06284 7.89481 5.26155 7.8125 5.46875 7.8125H19.5312C19.7385 7.8125 19.9372 7.89481 20.0837 8.04132C20.2302 8.18784 20.3125 8.38655 20.3125 8.59375C20.3125 8.80095 20.2302 8.99966 20.0837 9.14618C19.9372 9.29269 19.7385 9.375 19.5312 9.375H5.46875C5.26155 9.375 5.06284 9.29269 4.91632 9.14618C4.76981 8.99966 4.6875 8.80095 4.6875 8.59375Z" fill="#959EAD"/>
</svg>
