<svg width="20" height="20" viewBox="0 0 20 20" fill="none" xmlns="http://www.w3.org/2000/svg">
<g clip-path="url(#clip0_64_2)">
<path d="M7.98495 0.206639C8.33814 0.133403 8.69133 0.0813236 9.03964 0.0471467C9.39771 0.0129698 9.75253 -0.00330489 10.1025 -4.9949e-05C10.2994 0.00157752 10.4573 0.162697 10.4557 0.359621C10.454 0.510976 10.358 0.639546 10.2245 0.689998C8.73528 1.27589 7.54387 2.36792 6.81308 3.72035C6.09368 5.05 5.82024 6.63027 6.14739 8.22519L6.14901 8.23658C6.52173 10.0366 7.58619 11.5159 9.01034 12.4534C10.4329 13.3908 12.2118 13.7846 14.012 13.4168L14.0234 13.4152C15.3189 13.1467 16.4469 12.5217 17.3274 11.6608C18.2389 10.7706 18.8834 9.6297 19.1715 8.3798C19.2154 8.18776 19.4075 8.06895 19.5979 8.1129C19.7428 8.14707 19.8469 8.26425 19.8697 8.40259C20.2994 11.0391 19.65 13.6219 18.2323 15.679C16.8212 17.7264 14.6467 19.2546 12.0182 19.7949C9.31308 20.3515 6.63892 19.7591 4.50188 18.3529C2.36321 16.9419 0.763271 14.7204 0.206631 12.0156C-0.336989 9.37419 0.214768 6.7621 1.55103 4.65126C2.89381 2.53392 5.02597 0.917844 7.63502 0.284758C7.68547 0.271738 7.74407 0.258718 7.80754 0.244071H7.80917L7.98495 0.206639Z" fill="#FFCE31"/>
</g>
<defs>
<clipPath id="clip0_64_2">
<rect width="20" height="20" fill="white"/>
</clipPath>
</defs>
</svg>
