<svg width="23" height="23" viewBox="0 0 23 23" fill="none" xmlns="http://www.w3.org/2000/svg">
<path d="M6.93774 21.6375L9.56274 18.9375C8.62524 18.75 7.76274 18.375 6.97524 17.85L6.93774 21.6375Z" fill="#FFE62E"/>
<path d="M15.5627 0.862488L12.9377 3.56249C13.8752 3.74999 14.7377 4.12499 15.5252 4.64999L15.5627 0.862488" fill="#FFE62E"/>
<path d="M0.862793 15.5625L4.65029 15.525C4.12529 14.7375 3.75029 13.875 3.56279 12.9375L0.862793 15.5625Z" fill="#FFE62E"/>
<path d="M21.6379 6.93747L17.8504 6.97497C18.3379 7.76247 18.7129 8.62497 18.9379 9.56247L21.6379 6.93747Z" fill="#FFE62E"/>
<path d="M0.862793 6.93747L3.56279 9.56247C3.75029 8.62497 4.12529 7.76247 4.65029 6.97497L0.862793 6.93747" fill="#FFE62E"/>
<path d="M21.6379 15.5625L18.9379 12.9375C18.7504 13.875 18.3754 14.7375 17.8504 15.525L21.6379 15.5625Z" fill="#FFE62E"/>
<path d="M6.93774 0.862488L6.97524 4.64999C7.76274 4.16249 8.62524 3.78749 9.56274 3.56249L6.93774 0.862488" fill="#FFE62E"/>
<path d="M15.5627 21.6375L15.5252 17.85C14.7377 18.375 13.8752 18.75 12.9377 18.9375L15.5627 21.6375Z" fill="#FFE62E"/>
<path d="M4.80005 15.75L3.30005 19.2375L6.78755 17.7375C6.00005 17.175 5.32505 16.5 4.80005 15.75Z" fill="#FFCE31"/>
<path d="M17.7 6.74998L19.2 3.26248L15.75 4.76248C16.5 5.32498 17.175 5.99998 17.7 6.74998Z" fill="#FFCE31"/>
<path d="M3.525 9.8625L0 11.25L3.525 12.6375C3.4125 12.1875 3.375 11.7375 3.375 11.25C3.375 10.7625 3.4125 10.3125 3.525 9.8625Z" fill="#FFCE31"/>
<path d="M18.975 12.6375L22.5 11.25L18.975 9.8625C19.05 10.3125 19.125 10.8 19.125 11.25C19.125 11.7375 19.0875 12.1875 18.975 12.6375Z" fill="#FFCE31"/>
<path d="M6.74995 4.80002L3.26245 3.30002L4.76245 6.78752C5.32495 6.00002 5.99995 5.32502 6.74995 4.80002Z" fill="#FFCE31"/>
<path d="M15.75 17.7L19.2375 19.2L17.7375 15.7125C17.175 16.5 16.5 17.175 15.75 17.7Z" fill="#FFCE31"/>
<path d="M12.6375 3.525L11.25 0L9.86255 3.525C10.3125 3.45 10.8 3.375 11.25 3.375C11.7 3.375 12.1875 3.4125 12.6375 3.525Z" fill="#FFCE31"/>
<path d="M9.86255 18.975L11.25 22.5L12.6375 18.975C12.1875 19.0875 11.7375 19.125 11.25 19.125C10.7625 19.125 10.3125 19.0875 9.86255 18.975Z" fill="#FFCE31"/>
<path d="M11.25 18.375C15.185 18.375 18.375 15.185 18.375 11.25C18.375 7.31497 15.185 4.125 11.25 4.125C7.31497 4.125 4.125 7.31497 4.125 11.25C4.125 15.185 7.31497 18.375 11.25 18.375Z" fill="#FFCE31"/>
</svg>
